<svg width="50" height="51" viewBox="0 0 50 51" fill="none" xmlns="http://www.w3.org/2000/svg">
<path d="M43.956 28.5H35.3692C34.3071 30.8083 32.3713 32.6077 30 33.4512C31.9936 34.2539 35.7898 35.5222 39.7079 36.5C41.8131 34.2593 43.2936 31.4998 44 28.5H43.956Z" fill="#F04451"/>
<path d="M26.393 34.1349C23.6803 32.5511 21.1948 30.6424 19.5617 28.5C19.4822 28.9445 19.4144 29.4122 19.3558 29.8956C19.3548 29.9034 19.3539 29.9123 19.353 29.9201C19.1117 31.9282 18.9076 35.9872 19.0436 40.0975C19.1205 42.424 19.306 44.7666 19.6563 46.7623C20.1384 47.0111 21.0856 47.5 21.0856 47.5L25.3605 41.9488C25.6312 41.9771 25.904 41.9982 26.1782 42.0147C26.1881 42.0153 26.1979 42.0163 26.2078 42.0169C26.3502 42.0264 26.4926 42.0298 26.635 42.0361C26.858 42.044 27.0809 42.0524 27.3059 42.0524C27.3108 42.0524 27.3158 42.0521 27.3207 42.0521C31.1566 42.0809 34.9004 40.9208 38 38.743C37.9573 38.7344 37.9118 38.724 37.8685 38.7149C34.8788 38.094 30.3902 36.4686 26.393 34.1349Z" fill="#F04451"/>
<path d="M21 19.5C20.6094 19.5514 20.2026 19.618 19.788 19.6926C19.7197 19.7049 19.6533 19.7153 19.5846 19.7281C17.6011 20.0978 13.6706 21.1025 9.76112 22.4323C7.46646 23.2128 5.17901 24.1051 3.29676 25.0473C3.19667 25.5645 3 26.5808 3 26.5808L9.64663 28.8487C9.64663 28.8487 9.64961 28.8462 9.652 28.8443C10.4745 33.1124 12.9082 36.9181 16.4662 39.5C16.4618 39.4562 16.4584 39.4092 16.4543 39.3646C16.165 36.2639 16.474 31.2918 17.7307 26.7106C18.4695 24.0172 19.5346 21.4596 21 19.5Z" fill="#F04451"/>
<path d="M22.943 16.8604C25.8091 16.7583 28.6389 17.0103 31 17.8268C30.8334 17.4672 30.647 17.0967 30.4505 16.7211C30.4181 16.6593 30.3882 16.5987 30.3551 16.5365C29.4023 14.7434 27.2468 11.2722 24.778 7.919C23.329 5.9509 21.7723 4.0234 20.287 2.5C19.749 2.55976 18.692 2.67713 18.692 2.67713L18.4391 9.74251C18.4391 9.74251 18.4424 9.74462 18.4451 9.74631C14.4956 11.8221 11.4794 15.3057 10 19.5C10.0417 19.4826 10.0869 19.4652 10.1295 19.4478C13.0904 18.2357 18.0679 17.0342 22.943 16.8604Z" fill="#F04451"/>
<path d="M34.0211 17.2119C34.4747 18.2474 34.8744 19.3048 35.2184 20.3801C35.2311 20.4201 35.2439 20.46 35.2563 20.5H44C43.8349 19.8567 43.6317 19.2235 43.3915 18.6033C43.3293 18.4424 43.2656 18.2823 43.1987 18.1237C40.6869 12.1709 34.8757 7.89934 28 7.5C29.8416 9.55628 32.1922 13.0923 33.9125 16.9657C33.949 17.0477 33.9851 17.1298 34.0211 17.2119Z" fill="#F04451"/>
</svg>
